<?xml version="1.0" encoding="UTF-8"?><svg id="Layer_1" xmlns="http://www.w3.org/2000/svg" viewBox="0 0 150 120"><defs><style>.cls-1{fill:#f2f2f2;}.cls-2{fill:#e6e6e6;}</style></defs><rect class="cls-1" x="0" y="56" width="150" height="16" rx="8" ry="8"/><path class="cls-2" d="m5,52h139.99c2.76,0,5-2.04,5-4.56v-24.63s.52-9.56-7-16.42c-7-6.39-18-6.39-18-6.39H24.99S14.99,0,7.99,6.39C0,13.68.04,21.51.04,21.51L0,47.43c0,2.52,2.24,4.57,5,4.57Z"/><path class="cls-2" d="m134,120H16C7.16,120,0,114.44,0,107.59v-30.26c0-1.29,1.34-2.33,3-2.33h144c1.66,0,3,1.04,3,2.33v30.26c0,6.86-7.16,12.41-16,12.41Z"/></svg>